<svg width="147" height="109" viewBox="0 0 147 109" fill="none" xmlns="http://www.w3.org/2000/svg">
<path d="M18.0827 108.497C28.0644 108.497 36.1655 100.396 36.1655 90.414V72.3313H18.0827C8.10107 72.3313 0 80.4324 0 90.414C0 100.396 8.10107 108.497 18.0827 108.497Z" fill="#0ACF83"/>
<path d="M0 54.2483C0 44.2666 8.10107 36.1655 18.0827 36.1655H36.1655V72.331H18.0827C8.10107 72.331 0 64.23 0 54.2483Z" fill="#A259FF"/>
<path d="M0 18.083C0 8.10132 8.10107 0.000244141 18.0827 0.000244141H36.1655V36.1657H18.0827C8.10107 36.1657 0 28.0647 0 18.083Z" fill="#F24E1E"/>
<path d="M36.165 0H54.2478C64.2295 0 72.3305 8.10107 72.3305 18.0827C72.3305 28.0644 64.2295 36.1655 54.2478 36.1655H36.165V0Z" fill="#FF7262"/>
<path d="M72.3305 54.2483C72.3305 64.23 64.2295 72.331 54.2478 72.331C44.2661 72.331 36.165 64.23 36.165 54.2483C36.165 44.2666 44.2661 36.1655 54.2478 36.1655C64.2295 36.1655 72.3305 44.2666 72.3305 54.2483Z" fill="#1ABCFE"/>
<path d="M82.1789 64.2406C83.6157 64.2406 84.7891 64.7195 85.699 65.6774C86.6569 66.6352 87.1358 67.8565 87.1358 69.3412C87.1358 70.8738 86.6569 72.143 85.699 73.1487C84.7891 74.1066 83.6157 74.5855 82.1789 74.5855C80.79 74.5855 79.6166 74.0826 78.6587 73.0769C77.7488 72.0711 77.2938 70.8259 77.2938 69.3412C77.2938 67.8565 77.7488 66.6352 78.6587 65.6774C79.6166 64.7195 80.79 64.2406 82.1789 64.2406ZM87.898 79.758C88.9996 80.1411 90.1011 80.3567 91.2027 80.4046C92.7831 80.4525 93.9805 79.9256 94.7947 78.8241C95.6567 77.7704 96.0878 76.2139 96.0878 74.1545V35.5046H105.427V75.5913C105.427 79.5664 104.349 82.6555 102.194 84.8586C100.087 87.1096 97.1414 88.2351 93.3579 88.2351C90.7237 88.2351 88.2333 87.7562 85.8865 86.7983L87.898 79.758ZM100.686 18.9814C102.218 18.9814 103.487 19.5082 104.493 20.5619C105.499 21.6155 106.002 22.9565 106.002 24.5849C106.002 26.1654 105.499 27.4825 104.493 28.5361C103.487 29.5898 102.218 30.1166 100.686 30.1166C99.1529 30.1166 97.8838 29.5898 96.878 28.5361C95.8723 27.4825 95.3694 26.1654 95.3694 24.5849C95.3694 22.9565 95.8723 21.6155 96.878 20.5619C97.8838 19.5082 99.1529 18.9814 100.686 18.9814ZM139.277 45.9214C137.409 44.8198 135.469 43.9578 133.457 43.3351C131.494 42.7125 129.674 42.4012 127.998 42.4012C126.417 42.4012 125.148 42.6886 124.19 43.2633C123.28 43.7901 122.825 44.6283 122.825 45.7777C122.825 46.975 123.4 47.909 124.549 48.5795C125.747 49.2021 127.614 49.8726 130.153 50.591C132.835 51.4052 135.038 52.2193 136.762 53.0335C138.486 53.7998 139.971 54.9732 141.216 56.5537C142.509 58.0863 143.156 60.1217 143.156 62.6601C143.156 66.3958 141.719 69.2694 138.845 71.2809C135.972 73.2924 132.356 74.2982 127.998 74.2982C125.028 74.2982 122.131 73.8432 119.305 72.9332C116.479 71.9753 114.085 70.6343 112.121 68.9102L115.354 62.3727C117.078 63.8574 119.137 65.0308 121.532 65.8929C123.927 66.7071 126.202 67.1142 128.357 67.1142C130.081 67.1142 131.446 66.8268 132.452 66.2521C133.505 65.6295 134.032 64.7195 134.032 63.5222C134.032 62.1812 133.434 61.1754 132.236 60.5049C131.039 59.8344 129.099 59.092 126.417 58.2779C123.831 57.5116 121.724 56.7692 120.095 56.0508C118.467 55.2845 117.054 54.159 115.857 52.6743C114.659 51.1418 114.061 49.1542 114.061 46.7116C114.061 42.928 115.426 40.0544 118.156 38.0908C120.933 36.0793 124.406 35.0735 128.572 35.0735C131.111 35.0735 133.601 35.4327 136.044 36.1511C138.534 36.8695 140.737 37.8753 142.653 39.1684L139.277 45.9214Z" fill="black"/>
</svg>
